<svg width="69" height="61" viewBox="0 0 69 61" fill="none" xmlns="http://www.w3.org/2000/svg">
<path fill-rule="evenodd" clip-rule="evenodd" d="M0 1.5658C-0.00390625 0.756226 0.611328 0.0776367 1.41797 0.00170898C1.4668 -0.000610352 1.51562 -0.000610352 1.56445 0.00170898H67.2568C68.1201 0.00183105 68.8203 0.702026 68.8203 1.5658V43.7954C68.8203 44.6591 68.1201 45.3593 67.2568 45.3594H39.8848V50.0516H43.7949C44.4785 50.0529 45.083 50.4983 45.2861 51.1514L47.6318 58.9716C47.7793 59.4459 47.6924 59.9619 47.3984 60.3622C47.1045 60.7623 46.6377 60.999 46.1406 61H22.6797C22.1826 60.999 21.7158 60.7623 21.4219 60.3622C21.1279 59.9619 21.041 59.4459 21.1885 58.9716L23.5352 51.1514C23.7197 50.5469 24.25 50.1129 24.8789 50.0516C24.9277 50.0493 24.9766 50.0493 25.0254 50.0516H28.9355V45.3594H1.56445C0.700195 45.3593 0 44.6591 0 43.7954V1.5658ZM65.6924 3.12988H3.12793V42.2313H65.6924V3.12988ZM20.1865 10.1681C19.6279 10.1943 19.126 10.5166 18.8691 11.0137C18.6123 11.5106 18.6406 12.1068 18.9424 12.5776C19.2441 13.0485 19.7744 13.3224 20.333 13.2963H23.9258L29.0342 27.886C29.251 28.5112 29.8379 28.932 30.5 28.9368H37.5391H44.5771C45.2393 28.932 45.8262 28.5112 46.043 27.886L49.9541 16.9375C50.1191 16.4612 50.0449 15.9343 49.7539 15.5223C49.4629 15.1105 48.9912 14.8639 48.4873 14.8602H37.5391H27.7627L26.4922 11.1945C26.2666 10.5789 25.6816 10.1692 25.0254 10.1681H20.333C20.2842 10.1658 20.2354 10.1658 20.1865 10.1681ZM37.5381 17.9884H28.8623L31.5996 25.8087H37.5381H43.4766L46.2627 17.9884H37.5381ZM33.6279 30.5009C32.333 30.5009 31.2822 31.5513 31.2822 32.8469C31.2822 34.1426 32.333 35.193 33.6279 35.193C34.9238 35.193 35.9746 34.1426 35.9746 32.8469C35.9746 31.5513 34.9238 30.5009 33.6279 30.5009ZM39.1025 32.8469C39.1025 31.5513 40.1533 30.5009 41.4482 30.5009C42.7441 30.5009 43.7949 31.5513 43.7949 32.8469C43.7949 34.1426 42.7441 35.193 41.4482 35.193C40.1533 35.193 39.1025 34.1426 39.1025 32.8469ZM32.0645 45.3594H36.7568V51.6156H32.0645V45.3594ZM28.9355 53.1797H26.1738L24.7812 57.8718H44.0391L42.6465 53.1797H39.8848C39.8848 54.0435 39.1846 54.7437 38.3203 54.7437H30.5C29.6357 54.7437 28.9355 54.0435 28.9355 53.1797Z" fill="#1e1e1e"/>
</svg>
