<svg width="61" height="61" viewBox="0 0 61 61" fill="none" xmlns="http://www.w3.org/2000/svg">
<path fill-rule="evenodd" clip-rule="evenodd" d="M60.5029 23.7616V37.2383H53.7646C53.2686 39.0116 52.5586 40.6429 51.708 42.2035L56.46 46.9558L46.9551 56.4604L42.2031 51.7081C40.6426 52.5592 39.0107 53.2686 37.2383 53.765V60.5034H23.7607V53.765C21.9883 53.2686 20.3564 52.5592 18.7959 51.7081L14.0439 56.4604L4.53906 46.9558L9.29102 42.2035C8.44043 40.6429 7.73145 39.0116 7.23438 37.2383H0.496094V23.7616H7.23438C7.73145 21.9883 8.44043 20.3569 9.29102 18.7965L4.53906 14.0442L14.0439 4.53943L18.7959 9.29175C20.3564 8.44067 21.9883 7.73132 23.7607 7.23486V0.49646H37.2383V7.23486C39.0107 7.73132 40.6426 8.44067 42.2031 9.29175L46.9551 4.53943L56.46 14.0442L51.708 18.7965C52.5586 20.3569 53.2686 21.9883 53.7646 23.7616H60.5029ZM52.4873 46.9557L50.1465 44.615L48.2314 42.7C48.7988 41.8488 49.2959 40.9976 49.7217 40.1464C50.2178 39.2244 50.5723 38.3022 50.9268 37.3092C51.2109 36.3871 51.4238 35.465 51.6367 34.472H54.5449H57.8076V26.6697H54.5449H51.6367C51.4951 25.6766 51.2109 24.7545 50.9268 23.8324C50.5723 22.8395 50.2178 21.9174 49.7217 20.9952C49.2959 20.0731 48.7988 19.222 48.2314 18.4418L50.2891 16.3848L52.6299 14.0441L47.0967 8.51147L44.7559 10.8522L42.6992 12.9092C41.8477 12.3418 40.9971 11.8452 40.1455 11.4197C39.2236 10.9231 38.3018 10.4976 37.3086 10.2139C36.3867 9.93018 35.4648 9.71729 34.4717 9.50452V6.59644V3.33362H26.6689V6.59644V9.50452C25.6758 9.64636 24.7539 9.93018 23.832 10.2139C22.8389 10.5685 21.917 10.9231 20.9951 11.4197C20.0723 11.8452 19.2217 12.3418 18.4414 12.9092L16.3838 10.8522L14.0439 8.51147L8.51074 14.0441L10.8516 16.2429L12.9082 18.2999C12.3408 19.151 11.8447 20.0022 11.4189 20.8534C10.9229 21.7755 10.5684 22.6976 10.2129 23.6906C9.92969 24.6127 9.7168 25.5348 9.50391 26.5278H6.5957H3.33301V34.3301H6.5957H9.50391C9.64453 35.3173 9.92676 36.2344 10.208 37.151L10.2129 37.1674C10.5684 38.1604 10.9229 39.0824 11.4189 40.0045C11.8447 40.9266 12.3408 41.7778 12.9082 42.558L10.8516 44.615L8.51074 46.9557L14.0439 52.4883L16.2422 50.1476L18.2988 48.0906C19.1504 48.6581 20.002 49.1545 20.8525 49.5801C21.7744 50.0767 22.6973 50.4313 23.6904 50.7859C24.6123 51.0697 25.5342 51.2825 26.5273 51.4952V54.4034V57.6661H34.3291V54.4034V51.4952C35.3223 51.3534 36.2451 51.0697 37.167 50.7859C38.1602 50.4313 39.082 50.0767 40.0039 49.5801C40.9258 49.1545 41.7773 48.6581 42.5576 48.0906L44.6143 50.1476L46.9551 52.4883L52.4873 46.9557Z" fill="#51426B"/>
<path d="M30.4995 14.9663C21.917 14.9663 14.9658 21.9175 14.9658 30.5H17.803C17.803 23.4779 23.4774 17.8035 30.4995 17.8035C37.5216 17.8035 43.1961 23.4779 43.1961 30.5H46.0333C46.0333 21.9175 39.0821 14.9663 30.4995 14.9663Z" fill="#51426B"/>
<path d="M30.4997 35.9616C33.5161 35.9616 35.9613 33.5163 35.9613 30.5C35.9613 27.4836 33.5161 25.0383 30.4997 25.0383C27.4833 25.0383 25.0381 27.4836 25.0381 30.5C25.0381 33.5163 27.4833 35.9616 30.4997 35.9616Z" fill="#51426B"/>
</svg>
