<svg width="67" height="59" viewBox="0 0 67 59" fill="none" xmlns="http://www.w3.org/2000/svg">
<path d="M55.3175 16.7642C54.3016 15.7453 52.6931 15.7453 51.7619 16.7642C50.746 17.783 50.746 19.3962 51.7619 20.3302L60.9048 29.5L51.7619 38.6698C50.746 39.6887 50.746 41.3019 51.7619 42.2358C52.2698 42.7453 52.9471 43 53.5397 43C54.1323 43 54.8095 42.7453 55.3175 42.2358L66.2381 31.283C67.254 30.2642 67.254 28.6509 66.2381 27.717L55.3175 16.7642Z" fill="#1e1e1e"/>
<path d="M42.245 0.108189C40.9318 -0.309483 39.5365 0.525862 39.2082 1.86241L24.1063 55.8257C23.6959 57.1622 24.5167 58.5823 25.8299 58.9165C26.0761 59 26.2403 59 26.4865 59C27.5535 59 28.5384 58.2482 28.8667 57.1622L43.8866 3.19897C44.2969 1.86241 43.5583 0.442327 42.245 0.108189Z" fill="#1e1e1e"/>
<path d="M15.2381 16.7642C14.2222 15.7453 12.6138 15.7453 11.6825 16.7642L0.761905 27.717C-0.253968 28.7358 -0.253968 30.3491 0.761905 31.283L11.6825 42.2358C12.1905 42.7453 12.8677 43 13.4603 43C14.0529 43 14.7302 42.7453 15.2381 42.2358C16.254 41.217 16.254 39.6038 15.2381 38.6698L6.09524 29.5L15.2381 20.3302C16.254 19.3962 16.254 17.783 15.2381 16.7642Z" fill="#1e1e1e"/>
</svg>
