<svg width="69" height="54" viewBox="0 0 69 54" fill="none" xmlns="http://www.w3.org/2000/svg">
<path fill-rule="evenodd" clip-rule="evenodd" d="M66.4775 18.9524C68.0928 20.5822 69 22.7926 69 25.0973V25.8083C69 28.1132 68.0928 30.3235 66.4775 31.9532C64.8623 33.583 62.6719 34.4985 60.3867 34.4985H59.3691V49.4299C59.3604 49.9854 59.0635 50.4952 58.5859 50.7729L57.8037 51.0099L57.0205 50.7729L30.79 35.9996H27.1885V48.0868C26.8232 51.4519 24.0059 54 20.6504 54C17.2949 54 14.4785 51.4519 14.1123 48.0868V35.9996H12.9385C10.2969 36.0078 8.02539 34.1147 7.53516 31.4965H5.34277C2.29883 31.1447 0 28.5447 0 25.4529C0 22.361 2.29883 19.761 5.34277 19.4092H7.53516C8.02539 16.7909 10.2969 14.8978 12.9385 14.9061H30.9463L57.0205 0.211792C57.501 -0.0682373 58.0928 -0.0706787 58.5752 0.205322C59.0586 0.481445 59.3604 0.994873 59.3691 1.55481V16.4071H60.3867C62.6719 16.4071 64.8623 17.3228 66.4775 18.9524ZM5.34375 22.5693C3.77344 22.5687 2.48828 23.83 2.44629 25.4135C2.44629 27.0277 3.74316 28.3364 5.34375 28.3364H7.45703V22.5693H5.34375ZM24.1348 48.0869C23.8789 49.7854 22.4316 51.0404 20.7295 51.0404C19.0264 51.0404 17.5791 49.7854 17.3232 48.0869V35.9996H24.1348V48.0869ZM12.9375 32.8395H29.9287V18.0662H12.9375C11.6406 18.0662 10.5889 19.1273 10.5889 20.4362V30.4695C10.5889 31.7783 11.6406 32.8395 12.9375 32.8395ZM56.2373 46.6648L33.0605 33.5505V17.3551L56.2373 4.24084V46.6648ZM60.3867 31.3385C63.4141 31.3385 65.8682 28.8625 65.8682 25.8083V25.0974C65.8682 22.0432 63.4141 19.5673 60.3867 19.5673H59.3691V31.3385H60.3867Z" fill="#1e1e1e"/>
</svg>
