<svg width="47" height="72" viewBox="0 0 47 72" fill="none" xmlns="http://www.w3.org/2000/svg">
<path fill-rule="evenodd" clip-rule="evenodd" d="M41.5273 20.9454C42.0664 20.1406 42.9775 19.6087 44.0078 19.6087C45.6562 19.6087 46.998 20.9581 47 22.6162C47.002 24.264 45.6631 25.6127 44.0176 25.6174C42.9785 25.6174 42.0674 25.0887 41.5283 24.2855H29.6641C29.1309 26.262 27.7012 27.8629 25.8262 28.6027L38.4121 50.7482C38.7451 51.3356 38.6943 52.0674 38.2812 52.6008L34.1328 57.9697L34.1348 62.9926V70.33C34.1348 71.2531 33.3906 72 32.4736 72H14.626C13.709 72 12.9639 71.2523 12.9639 70.33V62.9926L12.9658 57.9792L8.72852 52.6151C8.30566 52.0801 8.24805 51.3419 8.58594 50.7482L21.1758 28.6027C19.2959 27.8652 17.8652 26.2635 17.3311 24.2855H5.47168C4.93262 25.0887 4.02148 25.6174 2.99023 25.6174C1.33984 25.6174 0 24.2704 0 22.6162C0 20.9573 1.33984 19.6087 2.9873 19.6087C4.01953 19.6087 4.93262 20.1406 5.4707 20.9454H12.5859C9.65625 19.2729 6.94629 16.7425 6.4209 12.6746C5.3125 12.3943 4.28809 11.838 3.45703 11.0021C2.24805 9.78534 1.58008 8.16846 1.58105 6.44763C1.58105 2.89398 4.45508 0.00158691 7.98828 0C11.5273 0.00158691 14.4033 2.89478 14.4023 6.45081C14.4033 8.16846 13.7354 9.78534 12.5234 11.0037C11.748 11.7824 10.7998 12.3094 9.77734 12.6055C10.3721 15.9774 13.2266 17.8934 17.8281 19.6667C18.8955 17.6005 21.0205 16.1694 23.4893 16.1694C25.9658 16.1694 28.0918 17.5981 29.1611 19.6619C33.7607 17.8696 36.6133 15.9519 37.2119 12.6015C34.5498 11.8189 32.5898 9.37256 32.5898 6.44843C32.5898 2.89398 35.4658 0.00238037 39 0.00238037C42.5361 0.00238037 45.4102 2.89319 45.4102 6.44843C45.4102 8.16766 44.7441 9.78455 43.5322 11.0029C42.7012 11.8372 41.6758 12.392 40.5664 12.673C40.0713 16.6822 37.5332 19.1706 34.3584 20.9454H41.5273ZM39.0059 3.34326C37.2969 3.34326 35.9121 4.73547 35.9121 6.44843C35.9121 8.15894 37.2969 9.55035 38.998 9.55035C39.8232 9.55035 40.5996 9.2265 41.1836 8.64075C41.7676 8.05414 42.0898 7.27631 42.0879 6.45001C42.0879 4.73547 40.7061 3.34326 39.0059 3.34326ZM4.9043 6.44843C4.9043 4.73389 6.28711 3.34167 7.98828 3.34009C9.69336 3.34167 11.0801 4.73389 11.0781 6.45001C11.0781 7.27472 10.7578 8.05414 10.1738 8.64075C9.59082 9.2265 8.81348 9.55035 7.98535 9.55035C7.16113 9.55035 6.3877 9.22809 5.80566 8.64154C5.22363 8.05652 4.9043 7.27631 4.9043 6.44843ZM16.2861 68.6599H30.8105V64.665H16.2861V68.6599ZM31.1582 56.3727C30.9326 56.6655 30.8096 57.0267 30.8096 57.3975L30.8115 61.3241H16.2861L16.2881 57.3975C16.2881 57.0204 16.1611 56.6544 15.9268 56.3584L12.0273 51.4237L21.8369 34.1708V44.5688C20.4531 45.2063 19.4844 46.6056 19.4844 48.2321C19.4844 50.4569 21.2842 52.2675 23.499 52.2675C25.7119 52.2675 27.5127 50.4569 27.5127 48.2336C27.5146 47.1549 27.0967 46.1421 26.3398 45.3809C25.9932 45.0332 25.5918 44.7673 25.1611 44.5688V34.1708L34.9756 51.4348L31.1582 56.3727ZM20.4062 22.6171C20.4062 24.3252 21.791 25.7174 23.498 25.7174C25.2002 25.7174 26.585 24.3252 26.585 22.6171C26.585 20.9041 25.2021 19.5103 23.5 19.5103C21.791 19.5103 20.4082 20.9041 20.4062 22.6171Z" fill="#51426B"/>
</svg>
