<svg width="51" height="56" viewBox="0 0 51 56" fill="none" xmlns="http://www.w3.org/2000/svg">
<path fill-rule="evenodd" clip-rule="evenodd" d="M40.3064 5.62341V26.3529H9.04839C8.13979 26.3529 7.40323 27.0904 7.40323 28V38.0317C3.19142 38.8063 0 42.5006 0 46.9412C0 51.9442 4.0511 56 9.04839 56C14.0457 56 18.0968 51.9442 18.0968 46.9412C18.0968 42.5006 14.9054 38.8063 10.6935 38.0317V29.6471H41.9516C42.8602 29.6471 43.5968 28.9096 43.5968 28V5.62341L48.1915 10.2235C48.834 10.8667 49.8757 10.8667 50.5181 10.2235C51.1606 9.58025 51.1606 8.53739 50.5181 7.89418L43.1149 0.482412C42.4724 -0.160804 41.4308 -0.160804 40.7883 0.482412L33.3851 7.89418C32.7426 8.53739 32.7426 9.58025 33.3851 10.2235C34.0276 10.8667 35.0692 10.8667 35.7117 10.2235L40.3064 5.62341ZM9.0481 52.7059C5.86801 52.7059 3.29004 50.125 3.29004 46.9412C3.29004 43.7575 5.86801 41.1765 9.0481 41.1765C12.2282 41.1765 14.8062 43.7575 14.8062 46.9412C14.8062 50.125 12.2282 52.7059 9.0481 52.7059ZM39.6248 46.9412L34.2074 41.5176C33.565 40.8744 33.565 39.8316 34.2074 39.1883C34.8499 38.5451 35.8916 38.5451 36.5341 39.1883L41.9514 44.6119L47.3687 39.1883C48.0112 38.5451 49.0529 38.5451 49.6953 39.1883C50.3378 39.8316 50.3378 40.8744 49.6953 41.5176L44.278 46.9412L49.6953 52.3648C50.3378 53.008 50.3378 54.0509 49.6953 54.6941C49.0529 55.3373 48.0112 55.3373 47.3687 54.6941L41.9514 49.2705L36.5341 54.6941C35.8916 55.3373 34.8499 55.3373 34.2074 54.6941C33.565 54.0509 33.565 53.008 34.2074 52.3648L39.6248 46.9412ZM6.72146 9.05878L1.30412 3.63519C0.661647 2.99198 0.661647 1.94912 1.30412 1.3059C1.9466 0.662682 2.98826 0.662682 3.63073 1.3059L9.04807 6.72949L14.4654 1.3059C15.1079 0.662682 16.1495 0.662682 16.792 1.3059C17.4345 1.94912 17.4345 2.99198 16.792 3.63519L11.3747 9.05878L16.792 14.4824C17.4345 15.1256 17.4345 16.1684 16.792 16.8117C16.1495 17.4549 15.1079 17.4549 14.4654 16.8117L9.04807 11.3881L3.63073 16.8117C2.98826 17.4549 1.9466 17.4549 1.30412 16.8117C0.661647 16.1684 0.661647 15.1256 1.30412 14.4824L6.72146 9.05878Z" fill="#51426B"/>
</svg>
