<svg xmlns="http://www.w3.org/2000/svg" width="64" height="41" viewBox="0 0 64 41">
    <path fill="#50426B" fill-rule="nonzero" d="M63.853 26.01c-.925-6.178-6.187-10.58-12.163-10.866 1.495-5.54 5.12-7.739 9.529-9.018.427-.141.355-.569.355-.569l-.711-4.402S60.791.8 60.224.872c-15.218 1.703-25.53 13.279-23.611 27.34 1.778 9.728 9.387 13.49 16.43 12.497 7.04-1.138 11.876-7.67 10.81-14.7zM15.277 15.143c1.423-5.54 5.193-7.739 9.53-9.018.427-.141.355-.569.355-.569l-.64-4.402S24.45.8 23.885.872C8.663 2.503-1.578 14.08.2 28.14c1.848 9.8 9.529 13.562 16.5 12.569 7.039-1.137 11.876-7.67 10.74-14.699-.925-6.25-6.118-10.652-12.163-10.865z" opacity=".472"/>
</svg>
