<?xml version="1.0" encoding="utf-8"?>
<!-- Generator: Adobe Illustrator 19.0.0, SVG Export Plug-In . SVG Version: 6.00 Build 0)  -->
<svg version="1.1" id="Layer_1" xmlns="http://www.w3.org/2000/svg" xmlns:xlink="http://www.w3.org/1999/xlink" x="0px" y="0px"
	 width="1165px" height="198px" viewBox="0 0 1165 198" style="enable-background:new 0 0 1165 198;" xml:space="preserve">
<style type="text/css">
	.st0{fill:#95BF46;}
	.st1{fill:#5F8E3E;}
	.st2{fill:#FFFFFF;}
	.st3{fill:#9F9F9F;}
</style>
<g>
	<g>
		<g>
			<path class="st0" d="M203.7,47.1c-0.1-0.8-0.9-1.3-1.5-1.4c-0.6-0.1-13.5-1-13.5-1s-9-8.9-10-9.9c-1-1-2.9-0.7-3.7-0.5
				c-0.1,0-2,0.6-5,1.6c-3-8.6-8.3-16.6-17.6-16.6c-0.3,0-0.5,0-0.8,0c-2.6-3.5-5.9-5-8.8-5c-21.7,0-32.1,27.1-35.3,40.9
				c-8.4,2.6-14.4,4.5-15.2,4.7c-4.7,1.5-4.9,1.6-5.5,6.1c-0.5,3.4-12.8,98.6-12.8,98.6l96,18l52-11.2
				C222.1,171.3,203.9,47.9,203.7,47.1z M164.8,37.5c-2.4,0.7-5.1,1.6-8.1,2.5c0-0.6,0-1.1,0-1.8c0-5.4-0.7-9.7-1.9-13.1
				C159.5,25.8,162.7,31.2,164.8,37.5z M148.8,26.2c1.3,3.3,2.2,8.1,2.2,14.6c0,0.3,0,0.6,0,0.9c-5.3,1.6-11,3.4-16.8,5.2
				C137.4,34.5,143.5,28.5,148.8,26.2z M142.3,20.1c0.9,0,1.9,0.3,2.8,0.9c-7,3.3-14.4,11.5-17.6,28c-4.6,1.4-9.1,2.8-13.3,4.1
				C118,40.6,126.7,20.1,142.3,20.1z"/>
			<path class="st1" d="M202.3,45.7c-0.6-0.1-13.5-1-13.5-1s-9-8.9-10-9.9c-0.4-0.4-0.9-0.6-1.4-0.6l-7.3,148.4l52-11.2
				c0,0-18.3-123.4-18.4-124.3C203.6,46.2,202.9,45.8,202.3,45.7z"/>
			<path class="st2" d="M152.5,74.4L146,93.5c0,0-5.6-3-12.5-3c-10.1,0-10.6,6.3-10.6,7.9c0,8.7,22.7,12,22.7,32.4
				c0,16.1-10.2,26.4-23.9,26.4c-16.5,0-24.9-10.3-24.9-10.3l4.4-14.6c0,0,8.7,7.4,16,7.4c4.8,0,6.7-3.8,6.7-6.5
				c0-11.4-18.6-11.9-18.6-30.5c0-15.7,11.3-30.9,34-30.9C148.1,71.9,152.5,74.4,152.5,74.4z"/>
		</g>
		<path id="s_2_" class="st2" d="M282.7,110.2c-5.2-2.8-7.9-5.2-7.9-8.4c0-4.1,3.7-6.8,9.5-6.8c6.7,0,12.7,2.8,12.7,2.8l4.7-14.5
			c0,0-4.4-3.4-17.2-3.4c-17.9,0-30.2,10.2-30.2,24.6c0,8.1,5.8,14.4,13.5,18.8c6.2,3.6,8.4,6.1,8.4,9.8c0,3.9-3.1,7-8.9,7
			c-8.6,0-16.7-4.4-16.7-4.4l-5,14.5c0,0,7.5,5,20.1,5c18.4,0,31.6-9,31.6-25.3C297.4,121,290.7,114.8,282.7,110.2z"/>
		<path id="h_2_" class="st2" d="M355.9,79.7c-9,0-16.1,4.3-21.6,10.8l-0.3-0.1l7.9-41h-20.4l-19.9,104.5H322l6.8-35.7
			c2.7-13.5,9.6-21.8,16.1-21.8c4.6,0,6.4,3.1,6.4,7.6c0,2.8-0.3,6.2-0.9,9l-7.7,40.9h20.4l8-42.2c0.9-4.4,1.5-9.8,1.5-13.3
			C372.7,86.6,366.6,79.7,355.9,79.7z"/>
		<path id="o_2_" class="st2" d="M418.9,79.7c-24.6,0-40.9,22.2-40.9,47c0,15.9,9.8,28.6,28.2,28.6c24.2,0,40.4-21.6,40.4-47
			C446.6,93.6,438,79.7,418.9,79.7z M408.8,139.5c-7,0-9.9-5.9-9.9-13.3c0-11.7,6.1-30.8,17.2-30.8c7.3,0,9.6,6.2,9.6,12.3
			C425.7,120.3,419.6,139.5,408.8,139.5z"/>
		<path id="p_2_" class="st2" d="M498.9,79.7c-13.8,0-21.6,12.1-21.6,12.1H477l1.2-11h-18.1c-0.9,7.4-2.5,18.7-4.1,27.1l-14.2,74.8
			h20.4l5.6-30.2h0.4c0,0,4.2,2.7,12,2.7c24,0,39.7-24.6,39.7-49.5C519.9,92,513.9,79.7,498.9,79.7z M479.3,139.8
			c-5.3,0-8.4-3-8.4-3l3.4-19.1c2.4-12.7,9-21.2,16.1-21.2c6.2,0,8.1,5.8,8.1,11.3C498.6,121,490.7,139.8,479.3,139.8z"/>
		<path id="dot_2_" class="st2" d="M549.1,50.3c-6.5,0-11.7,5.2-11.7,11.9c0,6.1,3.9,10.2,9.6,10.2h0.3c6.4,0,11.9-4.3,12-11.9
			C559.3,54.6,555.3,50.3,549.1,50.3z"/>
		<polygon id="i_2_" class="st2" points="520.5,153.8 541,153.8 554.9,81.3 534.3,81.3 		"/>
		<path id="f_2_" class="st2" d="M606.9,81.2h-14.2l0.7-3.4c1.2-7,5.3-13.2,12.1-13.2c3.6,0,6.5,1,6.5,1l4-16c0,0-3.6-1.8-11.1-1.8
			c-7.3,0-14.5,2.1-20,6.8c-7,5.9-10.2,14.5-11.9,23.1l-0.6,3.4H563l-3,15.4h9.5l-10.8,57.2h20.4L590,96.6h14.1L606.9,81.2z"/>
		<path id="y_2_" class="st2" d="M656.1,81.3c0,0-12.8,32.2-18.5,49.8h-0.3c-0.4-5.7-5-49.8-5-49.8h-21.5l12.3,66.5
			c0.3,1.5,0.1,2.4-0.4,3.4c-2.4,4.6-6.4,9-11.1,12.3c-3.9,2.8-8.1,4.6-11.6,5.8l5.6,17.3c4.1-0.9,12.7-4.3,20-11.1
			c9.3-8.7,17.9-22.2,26.8-40.6l25-53.6H656.1z"/>
	</g>
	<g>
		<g>
			<path class="st3" d="M751.6,149.7c-5.4,3-13.1,5.4-21.8,5.4c-17.9,0-25.2-12.7-25.2-28.1c0-21.1,14.6-47.1,37-47.1
				c12.8,0,19.3,8.2,19.3,17.9c0,18.5-19.6,24.2-44.2,23.9c-0.4,2.8-0.3,10,1.2,14c2.5,6.4,7.6,9.6,14.6,9.6
				c7.6,0,13.3-2.4,17.5-4.6L751.6,149.7z M749.5,98.2c0-5.5-3.9-8.7-9.6-8.7c-10.3,0-18.5,10.5-21.8,23c17,0.1,31.4-2.8,31.4-14.2
				V98.2z"/>
			<path class="st3" d="M782.7,81.5l6.1,15.7c1.6,4.8,2.8,8.5,4.2,11.9h0.3c2.7-4.2,4.5-7,7.6-11.4l12.2-16.3h13.4L798.1,117
				l14.9,36.7h-12.8l-6.1-16.3c-1.9-4.9-3-7.9-4.5-12.8h-0.4c-2.1,3.6-4.3,7.2-7.3,11.5l-13,17.6h-13.6l29.6-37L770,81.5H782.7z"/>
			<path class="st3" d="M816.9,183l14.5-75.9c1.6-9.1,3-18.8,4-25.7h10.8l-1.9,13h0.3c6.1-9,14.8-14.5,23.9-14.5
				c14,0,19.6,11.9,19.6,24.5c0,24.5-16.3,50.8-39.6,50.8c-6.4,0-11.1-1.5-13.6-3h-0.3l-5.8,30.8H816.9z M836.6,142.2
				c2.7,2.2,6.7,3.6,11.7,3.6c16.1,0,27.3-23.9,27.3-40.3c0-7.5-2.7-15.5-11.8-15.5c-9,0-19.7,11.4-23.2,29.6L836.6,142.2z"/>
			<path class="st3" d="M942.1,149.7c-5.4,3-13.1,5.4-21.8,5.4c-17.9,0-25.2-12.7-25.2-28.1c0-21.1,14.6-47.1,37-47.1
				c12.8,0,19.3,8.2,19.3,17.9c0,18.5-19.6,24.2-44.2,23.9c-0.4,2.8-0.3,10,1.2,14c2.5,6.4,7.6,9.6,14.6,9.6
				c7.6,0,13.3-2.4,17.5-4.6L942.1,149.7z M940,98.2c0-5.5-3.9-8.7-9.6-8.7c-10.3,0-18.5,10.5-21.8,23c17,0.1,31.4-2.8,31.4-14.2
				V98.2z"/>
			<path class="st3" d="M954.6,153.8l9-47.2c1.8-9.4,2.8-18.8,3.4-25.1h10.5c-0.4,4.6-0.9,9.4-1.6,15.1h0.3
				C980.9,87,988.1,80,997.1,80c1,0,2.2,0.1,3.1,0.1l-2.4,11.9c-0.6-0.1-1.6-0.1-2.7-0.1c-10.5,0-19.4,13.1-22.3,28.1l-6.4,33.8
				H954.6z"/>
			<path class="st3" d="M1032.6,64.3l-3.3,17.2h16.1l-1.8,9.3h-16.3l-6.9,37c-0.7,3.9-1.3,7.6-1.3,10.8c0,4.2,1.8,6.6,6.3,6.6
				c2.1,0,3.9-0.1,5.4-0.4l-0.6,9.3c-2.4,0.7-5.8,1.2-9.1,1.2c-9.9,0-14.2-6-14.2-13.3c0-3.7,0.4-7.6,1.5-13l7.3-38.1h-9.9l1.8-9.3
				h9.9l2.5-13L1032.6,64.3z"/>
			<path class="st3" d="M1044,141.7c3,1.9,8.5,4.2,14.2,4.2c8.1,0,13.1-5.4,13.1-12c0-5.8-2.7-9.6-9.3-13.6
				c-7.3-4.5-11.9-10.9-11.9-18.2c0-12.4,10.3-22.1,25.1-22.1c6,0,11.2,1.6,13.9,3.3l-3.4,9.1c-2.4-1.3-6.4-3-11.1-3
				c-7.6,0-12.5,4.8-12.5,10.9c0,5.5,3.4,8.7,9,12.2c7.3,4.6,12.4,11.1,12.4,19c0,15.4-11.7,23.6-26.3,23.6
				c-7.2,0-13.7-2.4-16.6-4.6L1044,141.7z"/>
		</g>
	</g>
</g>
</svg>
